<svg width="65" height="65" viewBox="0 0 65 65" fill="none" xmlns="http://www.w3.org/2000/svg">
<g clip-path="url(#clip0_2403_1275)">
<path d="M63.8108 4.95171L60.0491 1.19008C59.6719 0.812748 59.224 0.513424 58.7311 0.309206C58.2381 0.104988 57.7098 -0.00012207 57.1762 -0.00012207C56.6426 -0.00012207 56.1143 0.104988 55.6213 0.309206C55.1284 0.513424 54.6805 0.812748 54.3032 1.19008L48.4279 7.07182C47.9353 7.56298 47.5645 8.1625 47.3449 8.82251L45.8012 13.4576L36.1198 23.139C34.576 22.0269 32.8824 21.1408 31.0289 20.7091C26.7824 19.7214 22.5231 20.5974 19.6184 23.5021C18.4334 24.6919 17.5521 26.1492 17.0489 27.7512C16.2871 30.1075 14.1023 31.9013 11.6978 32.126C8.68899 32.4142 5.89222 33.5796 3.74925 35.7366C-2.04489 41.5142 -1.00261 51.9244 6.04075 58.9639C13.0841 66.0035 23.4866 67.0318 29.2706 61.258C31.4288 59.115 32.5917 56.3195 32.8824 53.2967C33.1059 50.9037 34.8997 48.7099 37.2534 47.9469C38.8557 47.4428 40.3134 46.5611 41.5038 45.3761C44.4073 42.4714 45.2794 38.221 44.2968 33.9821C43.8664 32.1235 42.9803 30.4274 41.8644 28.8786L51.5433 19.1997L56.1745 17.6559C56.8345 17.4364 57.4341 17.0655 57.9252 16.573L63.807 10.6925C64.568 9.93134 64.9958 8.89926 64.9965 7.8229C64.9972 6.74654 64.5708 5.7139 63.8108 4.95171V4.95171ZM26.4066 44.688C25.2013 44.688 24.0232 44.3306 23.0211 43.6611C22.019 42.9915 21.2379 42.0397 20.7767 40.9263C20.3155 39.8128 20.1948 38.5875 20.4299 37.4054C20.665 36.2234 21.2454 35.1376 22.0976 34.2853C22.9499 33.4331 24.0357 32.8528 25.2177 32.6176C26.3998 32.3825 27.6251 32.5032 28.7385 32.9644C29.852 33.4256 30.8037 34.2067 31.4733 35.2088C32.1429 36.2109 32.5003 37.3891 32.5003 38.5943C32.5003 40.2104 31.8583 41.7604 30.7155 42.9032C29.5727 44.046 28.0227 44.688 26.4066 44.688Z" fill="#37DEAD"/>
</g>
<defs>
<clipPath id="clip0_2403_1275">
<rect width="65" height="65" fill="white"/>
</clipPath>
</defs>
</svg>
